<?xml version="1.0" encoding="utf-8"?>
<!-- Generator: Adobe Illustrator 25.0.1, SVG Export Plug-In . SVG Version: 6.00 Build 0)  -->
<svg version="1.1" id="Layer_1" xmlns="http://www.w3.org/2000/svg" xmlns:xlink="http://www.w3.org/1999/xlink" x="0px" y="0px"
	 viewBox="0 0 212.2 52.59" style="enable-background:new 0 0 212.2 52.59;" xml:space="preserve">
<style type="text/css">
	.st0{fill:#0C0D0D;}
	.st1{fill:none;stroke:#FFC513;stroke-width:3;}
</style>
<g>
	<g>
		<path class="st0" d="M13.14,1.75l-0.17,4.79c-0.26,7.26-0.51,12.34-0.77,15.24c-0.07,0.59-0.09,1.03-0.05,1.32
			c0.04,0.29,0.09,0.46,0.17,0.5c0.15,0.11,0.46-0.17,0.93-0.83c0.77-0.95,2.51-2.69,5.23-5.22c1.58-1.43,2.68-2.31,3.3-2.64
			c0.59-0.37,1.03-0.33,1.32,0.11c0.37,0.48,0.09,0.99-0.83,1.54c-0.59,0.4-1.37,1.05-2.34,1.95s-1.82,1.73-2.56,2.5
			c-0.73,0.81-1.1,1.3-1.1,1.49c0,0.15,0.38,0.64,1.16,1.49c0.11,0.11,0.21,0.21,0.3,0.3c0.09,0.09,0.18,0.18,0.27,0.28
			c0.09,0.09,0.17,0.18,0.25,0.27c0.07,0.09,0.15,0.17,0.22,0.25c0.07,0.07,0.15,0.15,0.22,0.22c0.04,0.07,0.08,0.15,0.14,0.22
			c0.05,0.07,0.11,0.13,0.17,0.17c0.05,0.04,0.08,0.09,0.08,0.17c1.06,1.39,1.89,2.46,2.48,3.19c0.33,0.37,0.64,0.71,0.93,1.04
			c0.29,0.33,0.59,0.62,0.88,0.88c0.55,0.55,1.27,1.19,2.15,1.92c1.17,0.92,1.87,1.6,2.09,2.04c0.18,0.4,0.04,0.79-0.44,1.16
			c-0.77,0.51-1.47,0.27-2.09-0.71c-0.18-0.29-0.37-0.53-0.55-0.71c-0.18-0.18-0.35-0.31-0.5-0.39c-0.15-0.11-0.44-0.37-0.88-0.77
			c-0.48-0.4-0.99-0.92-1.54-1.54c-0.59-0.59-1.1-1.12-1.54-1.59c-0.4-0.48-0.73-0.97-0.99-1.49c-0.29-0.48-1.01-1.36-2.14-2.64
			c-0.62-0.66-1.1-1.15-1.43-1.46c-0.33-0.31-0.53-0.47-0.61-0.47c-0.11,0-0.28,0.08-0.5,0.25s-0.5,0.41-0.83,0.74
			c-0.66,0.66-1.1,1.23-1.32,1.71c-0.29,0.44-0.46,0.94-0.5,1.49c-0.04,0.04-0.06,0.1-0.06,0.19c0,0.09,0,0.18,0,0.27
			c0,0.09-0.01,0.19-0.03,0.3c-0.02,0.11-0.03,0.23-0.03,0.36c0,0.13,0,0.27,0,0.41s0,0.3,0,0.47s-0.01,0.34-0.03,0.52
			c-0.02,0.18-0.03,0.38-0.03,0.58c0,0.2,0,0.41,0,0.63c-0.04,2.46-0.15,4.03-0.33,4.73c-0.07,0.22-0.17,0.41-0.28,0.58
			c-0.11,0.16-0.24,0.28-0.38,0.36C10.47,37.96,10.3,38,10.12,38c-0.51,0-0.84-0.16-0.99-0.47c-0.15-0.31-0.16-0.87-0.05-1.68
			c0.04-0.29,0.07-0.61,0.11-0.94c0.04-0.33,0.06-0.67,0.08-1.02c0.02-0.35,0.04-0.71,0.06-1.1c0.02-0.38,0.03-0.78,0.03-1.18
			c0.07-5.98,0.24-9.57,0.5-10.78c0.26-1.03,0.59-5.65,0.99-13.86c0.04-1.25,0.09-2.32,0.17-3.22s0.13-1.59,0.17-2.06
			c0.07-0.48,0.13-0.75,0.17-0.83c0.29-0.37,0.71-0.27,1.27,0.28L13.14,1.75z"/>
		<path class="st0" d="M32.78,3.02c2.82,0.55,4.97,0.86,6.43,0.93c0.15,0.04,0.3,0.06,0.47,0.08s0.33,0.05,0.5,0.11
			s0.33,0.11,0.5,0.17s0.32,0.12,0.47,0.19c0.29,0.18,0.51,0.35,0.66,0.5c0.11,0.15,0.17,0.29,0.17,0.44S41.93,5.7,41.88,5.8
			c-0.06,0.09-0.14,0.19-0.25,0.3c-0.26,0.15-0.55,0.16-0.88,0.05H40.7c-0.26-0.04-0.48-0.07-0.66-0.11
			c-0.18-0.04-0.35-0.06-0.5-0.08s-0.26-0.05-0.33-0.08c-3.34-0.4-5.72-0.79-7.15-1.15c-0.59-0.11-1.08-0.37-1.48-0.77
			c-0.44-0.37-0.66-0.73-0.66-1.1c0-0.22,0.04-0.33,0.11-0.33C30.25,2.52,31.16,2.69,32.78,3.02z M35.42,17.76
			c-0.11,4.25-0.28,7.28-0.5,9.08c-0.11,1.32-0.18,3.25-0.22,5.78c-0.04,0.95-0.07,1.74-0.11,2.37c-0.04,0.62-0.07,1.08-0.11,1.37
			c-0.11,0.62-0.35,1.08-0.72,1.38c-0.55,0.44-1.06,0.37-1.54-0.22v-0.05c-0.15-0.11-0.24-0.22-0.27-0.33
			c-0.07-0.15-0.11-0.26-0.11-0.33c-0.04-0.22-0.02-0.62,0.06-1.21c0.18-0.99,0.27-2.29,0.27-3.91c0-1.5,0.09-3.39,0.28-5.67
			c0.11-1.72,0.26-4.4,0.44-8.03c0.04-0.81,0.08-1.51,0.14-2.12c0.05-0.6,0.1-1.12,0.14-1.54c0.04-0.42,0.09-0.76,0.17-1.02
			c0.07-0.33,0.18-0.67,0.33-1.02c0.15-0.35,0.35-0.69,0.6-1.02c0.22-0.29,0.42-0.5,0.61-0.61c0.11-0.07,0.21-0.08,0.3-0.03
			c0.09,0.05,0.17,0.17,0.25,0.36C35.53,11.25,35.53,13.5,35.42,17.76z"/>
		<path class="st0" d="M44.22,16.33c0.11-0.04,0.33-0.05,0.66-0.05c0.26,0,0.51,0.04,0.77,0.11c0.26,0.07,0.51,0.2,0.77,0.39
			c0.29,0.18,0.55,0.39,0.77,0.63c0.22,0.24,0.39,0.52,0.5,0.85c0.26,0.62,0.42,1.76,0.5,3.41c0.07,1.98,0.18,3.06,0.33,3.25
			c0.18,0.15,0.62-0.15,1.32-0.88c0.26-0.29,0.57-0.61,0.93-0.96c0.37-0.35,0.79-0.72,1.27-1.13c0.92-0.81,1.52-1.27,1.81-1.38
			c0.48-0.26,0.86-0.48,1.16-0.66c0.26-0.11,0.51-0.19,0.77-0.25c0.26-0.05,0.5-0.04,0.71,0.03c0.48,0.15,0.83,0.44,1.05,0.88
			c0.07,0.15,0.14,0.33,0.19,0.55c0.05,0.22,0.11,0.46,0.17,0.71c0.05,0.26,0.1,0.55,0.14,0.88c0.04,0.55,0.07,0.95,0.11,1.21
			c0.04,0.26,0.11,0.42,0.22,0.5c0.11,0.04,0.24-0.04,0.39-0.22c0.07-0.07,0.15-0.17,0.22-0.28c0.07-0.11,0.17-0.24,0.27-0.38
			c0.04-0.11,0.1-0.24,0.19-0.38c0.09-0.15,0.21-0.3,0.36-0.47c0.15-0.17,0.3-0.34,0.47-0.52c0.17-0.18,0.35-0.38,0.55-0.61
			c0.2-0.22,0.43-0.46,0.69-0.71c0.4-0.44,0.79-0.84,1.15-1.21c0.37-0.37,0.72-0.71,1.07-1.02c0.35-0.31,0.67-0.6,0.96-0.85
			c0.84-0.7,1.45-1.02,1.82-0.96c0.37,0.05,0.84,0.54,1.43,1.46l0.93,1.43l0.11,5.11c0.07,3.52,0.05,5.5-0.05,5.94
			c-0.15,0.51-0.22,1.25-0.22,2.2c0,0.48,0.02,0.87,0.05,1.18c0.04,0.31,0.07,0.54,0.11,0.69v0.05c0.07,0.15,0.17,0.27,0.3,0.36
			c0.13,0.09,0.28,0.16,0.47,0.19c0.18,0.11,0.33,0.23,0.44,0.36c0.11,0.13,0.2,0.28,0.27,0.47c0.07,0.33,0.04,0.61-0.11,0.82
			c-0.04,0.07-0.07,0.14-0.11,0.19c-0.04,0.05-0.08,0.11-0.14,0.16s-0.12,0.1-0.19,0.14c-0.07,0.04-0.15,0.07-0.22,0.11
			c-0.33,0.15-0.75,0.26-1.27,0.33c-0.15,0-0.29,0-0.44,0c-0.15,0-0.27,0-0.36,0c-0.09,0-0.17-0.02-0.25-0.05
			c-0.07,0-0.16-0.05-0.25-0.14c-0.09-0.09-0.17-0.21-0.25-0.36c-0.29-0.44-0.37-1.59-0.22-3.46c0.11-1.87,0.15-4.75,0.11-8.63
			c0-1.06-0.01-1.94-0.03-2.64c-0.02-0.7-0.04-1.31-0.06-1.84c-0.02-0.53-0.05-0.92-0.08-1.18c-0.04-0.26-0.07-0.42-0.11-0.5
			c-0.04,0-0.08,0-0.14,0c-0.05,0-0.12,0.01-0.19,0.03c-0.07,0.02-0.16,0.05-0.25,0.11c-0.09,0.06-0.19,0.13-0.3,0.22
			s-0.23,0.18-0.36,0.27c-0.13,0.09-0.27,0.19-0.41,0.3c-0.29,0.26-0.56,0.47-0.8,0.63c-0.24,0.17-0.49,0.32-0.74,0.47
			c-0.07,0-0.17,0.06-0.28,0.19c-0.11,0.13-0.24,0.29-0.38,0.5c-0.15,0.2-0.35,0.49-0.61,0.85c-0.7,0.99-1.38,2.06-2.06,3.22
			c-0.68,1.16-1.05,1.9-1.13,2.23c0,0.11-0.03,0.28-0.08,0.5s-0.1,0.4-0.14,0.55c-0.04,0.07-0.06,0.17-0.08,0.28
			c-0.02,0.11-0.05,0.22-0.08,0.33c-0.04,0.11-0.06,0.21-0.08,0.3c-0.02,0.09-0.05,0.16-0.08,0.19c-0.22,0.88-0.37,1.94-0.44,3.19
			c-0.15,2.02-0.62,3.03-1.43,3.03c-0.55,0-0.86-0.28-0.94-0.83c-0.07-0.55-0.02-2.18,0.17-4.89c0-0.18,0.02-0.44,0.05-0.77
			c0.33-5.35,0.4-8.12,0.22-8.3h-0.06h-0.22h-0.05c-0.33,0-0.73,0.15-1.21,0.44c-0.48,0.29-1.03,0.75-1.65,1.38
			c-1.28,1.25-2.2,2.48-2.75,3.69c-0.11,0.15-0.21,0.32-0.3,0.52c-0.09,0.2-0.18,0.41-0.27,0.63c-0.09,0.22-0.17,0.45-0.25,0.69
			c-0.07,0.24-0.16,0.49-0.25,0.74c-0.09,0.26-0.17,0.53-0.25,0.83c-0.44,1.43-0.7,2.62-0.77,3.57c-0.15,1.69-0.68,2.53-1.59,2.53
			c-0.88,0-1.17-0.6-0.88-1.81c0.48-2.09,0.68-3.41,0.6-3.96c0-0.33,0.05-0.7,0.17-1.1c0.15-0.48,0.18-2.66,0.11-6.54l-0.22-5.88
			l-0.93-0.17c-0.18-0.04-0.34-0.08-0.47-0.14c-0.13-0.05-0.22-0.12-0.27-0.19c-0.06-0.07-0.1-0.17-0.14-0.28
			C44.13,16.53,44.14,16.4,44.22,16.33z"/>
		<path class="st0" d="M96.93,16c0.24-0.11,0.43-0.18,0.58-0.22c0.33-0.07,0.84-0.07,1.54,0c0.92,0.11,1.69,0.26,2.31,0.44
			c0.62,0.18,1.13,0.47,1.51,0.85c0.38,0.39,0.69,0.87,0.91,1.46c0.04,0.15,0.09,0.27,0.17,0.36c0.07,0.09,0.15,0.16,0.22,0.19
			c0.07,0.04,0.17,0.05,0.27,0.05c0.33,0.04,0.61,0.18,0.83,0.44c0.22,0.29,0.26,0.57,0.11,0.83c-0.55,1.06-0.88,3.04-0.99,5.94
			c-0.07,1.25-0.08,2.21-0.03,2.89c0.05,0.68,0.16,1.05,0.3,1.13c0.15,0.04,0.37-0.02,0.66-0.17h0.06c0.18-0.11,0.42-0.22,0.71-0.33
			c0.29-0.11,0.62-0.24,0.99-0.38c0.77-0.26,1.49-0.5,2.17-0.72c0.68-0.22,1.18-0.35,1.51-0.38c0.18,0,0.35,0,0.5,0
			c0.15,0,0.28,0.01,0.41,0.03c0.13,0.02,0.24,0.06,0.33,0.11s0.17,0.1,0.25,0.14c0.15,0.15,0.24,0.29,0.27,0.44
			c0.04,0.11,0.04,0.2,0,0.28c-0.04,0.07-0.1,0.16-0.19,0.25c-0.09,0.09-0.23,0.17-0.41,0.25c-0.18,0.07-0.38,0.15-0.61,0.22
			c-0.33,0.11-0.71,0.23-1.13,0.36c-0.42,0.13-0.87,0.28-1.35,0.47c-1.98,0.66-3.19,0.99-3.63,0.99c-0.33,0-0.57,0.11-0.71,0.33
			c-0.11,0.11-0.19,0.44-0.25,0.99s-0.1,1.36-0.14,2.42c-0.04,1.47-0.09,2.8-0.17,4.02c-0.07,1.21-0.14,2.29-0.19,3.24
			c-0.05,0.95-0.12,1.78-0.19,2.47c-0.07,0.7-0.15,1.27-0.22,1.71c-0.07,0.44-0.15,0.77-0.22,0.99c-0.18,0.7-0.53,1.42-1.04,2.17
			c-0.51,0.75-0.99,1.29-1.43,1.62c-0.48,0.26-1.03,0.5-1.65,0.74c-0.62,0.24-1.27,0.41-1.95,0.52s-1.29,0.15-1.84,0.11
			c-1.32-0.11-2.6-0.49-3.85-1.15c-1.21-0.7-2.05-1.45-2.53-2.26c-0.18-0.4-0.27-1.21-0.27-2.42c0-0.59,0.03-1.12,0.08-1.59
			c0.06-0.48,0.14-0.9,0.25-1.27c0.11-0.37,0.28-0.78,0.52-1.24c0.24-0.46,0.54-0.96,0.91-1.51c0.62-0.92,1.67-2.13,3.13-3.63
			c0.73-0.73,1.38-1.36,1.95-1.87c0.57-0.51,1.07-0.92,1.51-1.21c0.11-0.04,0.2-0.09,0.28-0.17c0.07-0.07,0.16-0.13,0.25-0.17
			c0.09-0.04,0.17-0.08,0.22-0.14c0.05-0.05,0.11-0.1,0.17-0.14c0.05-0.04,0.11-0.07,0.17-0.11c0.05-0.04,0.1-0.07,0.14-0.11
			c0.04-0.04,0.06-0.06,0.08-0.08c0.02-0.02,0.05-0.05,0.08-0.08c0.11-0.15,0.7-0.53,1.76-1.15c0.22-0.11,0.41-0.22,0.58-0.33
			c0.17-0.11,0.3-0.2,0.41-0.28c0.11-0.07,0.21-0.15,0.3-0.22c0.09-0.07,0.16-0.13,0.19-0.17c0.04-0.07,0.08-0.16,0.14-0.25
			c0.05-0.09,0.1-0.2,0.14-0.33c0.04-0.13,0.05-0.28,0.05-0.47c0.15-0.81,0.2-2.02,0.17-3.63c-0.04-1.61-0.11-2.46-0.22-2.53
			c-0.18-0.11-0.55,0.2-1.1,0.93c-1.72,2.09-3.15,3.45-4.29,4.07c-0.66,0.29-1.5,0.54-2.53,0.74c-1.03,0.2-1.83,0.27-2.42,0.19
			c-0.44-0.07-0.71-0.22-0.83-0.44c-0.04-0.07-0.08-0.19-0.14-0.36s-0.14-0.38-0.25-0.66c-0.11-0.28-0.22-0.61-0.33-1.02
			c-0.48-1.5-0.68-2.7-0.61-3.58c0.15-1.39,0.87-2.88,2.17-4.46c1.3-1.58,2.81-2.82,4.54-3.74C96.39,16.25,96.69,16.11,96.93,16z
			 M101.75,35.99c0-0.35-0.02-0.63-0.06-0.85c-0.04-0.22-0.07-0.37-0.11-0.44c-0.15-0.22-0.59-0.09-1.32,0.38
			c-1.65,0.88-3.59,2.46-5.83,4.73c-1.39,1.36-2.37,2.49-2.92,3.41c-0.26,0.44-0.47,0.92-0.63,1.43s-0.27,1.06-0.3,1.65
			c-0.15,2.38,0.86,3.89,3.02,4.51c0.66,0.18,1.17,0.28,1.54,0.28c0.18,0,0.44-0.01,0.77-0.03c0.33-0.02,0.75-0.06,1.26-0.14
			c0.29-0.04,0.55-0.08,0.77-0.14c0.22-0.05,0.4-0.12,0.55-0.19c0.29-0.15,0.62-0.39,0.99-0.72c0.77-0.77,1.34-2.2,1.71-4.29
			s0.55-4.84,0.55-8.25C101.75,36.79,101.75,36.34,101.75,35.99z M97.9,17.81c-0.37,0.11-0.83,0.35-1.38,0.71
			c-0.55,0.37-1.17,0.86-1.87,1.48c-1.1,0.99-1.91,2.02-2.42,3.08c-0.4,0.7-0.64,1.21-0.71,1.54c-0.07,0.33-0.07,0.83,0,1.49
			c0.04,0.62,0.12,1.14,0.25,1.54c0.13,0.4,0.3,0.71,0.52,0.93c0.15,0.15,0.33,0.25,0.55,0.3c0.22,0.05,0.46,0.07,0.71,0.05
			c0.26-0.02,0.55-0.08,0.88-0.19c0.48-0.11,0.93-0.3,1.35-0.58c0.42-0.28,0.91-0.68,1.46-1.21c0.55-0.53,1.32-1.35,2.31-2.45
			c1.8-1.94,2.69-3.12,2.69-3.52c0-0.33,0.07-0.53,0.22-0.6c0.07-0.07,0.13-0.17,0.17-0.3c0.04-0.13,0.05-0.3,0.05-0.52
			c0-0.07-0.01-0.16-0.03-0.25c-0.02-0.09-0.05-0.16-0.08-0.22c-0.04-0.05-0.08-0.11-0.14-0.17c-0.06-0.05-0.14-0.11-0.25-0.17
			c-0.11-0.05-0.24-0.12-0.38-0.19c-0.15-0.07-0.33-0.15-0.55-0.22C99.78,17.81,98.67,17.63,97.9,17.81z"/>
		<path class="st0" d="M126.05,31.51c-0.37,0.95-1.43,2.35-3.19,4.18c-0.84,0.88-1.64,1.49-2.39,1.81c-0.75,0.33-1.71,0.5-2.89,0.5
			c-0.7,0-1.17-0.04-1.4-0.11c-0.24-0.07-0.5-0.28-0.8-0.61c-0.51-0.59-0.85-1.41-1.02-2.47c-0.17-1.06-0.21-2.71-0.14-4.95
			l0.17-3.52l1.1-2.64c0.62-1.47,1.13-2.54,1.51-3.22c0.39-0.68,1.07-1.62,2.06-2.83c0.88-1.03,1.63-1.69,2.25-1.98
			c0.22-0.11,0.41-0.2,0.58-0.27s0.29-0.15,0.38-0.22c0.09-0.07,0.16-0.13,0.19-0.17c0.18-0.33,1.04-0.26,2.58,0.22
			c0.51,0.15,0.94,0.29,1.29,0.44c0.35,0.15,0.6,0.28,0.77,0.41c0.17,0.13,0.25,0.25,0.25,0.36c0,0.22-0.1,0.41-0.3,0.58
			c-0.2,0.17-0.43,0.25-0.69,0.25c-0.29,0-0.53,0.07-0.71,0.22c-0.07,0.07-0.18,0.09-0.33,0.05c-0.15-0.04-0.33-0.11-0.55-0.22
			c-0.37-0.15-0.64-0.22-0.83-0.22c-0.18,0-0.53,0.13-1.04,0.38c-0.73,0.33-1.45,0.95-2.15,1.87c-2.93,3.78-4.4,7.77-4.4,11.99
			c0,2.02,0.14,3.32,0.41,3.91s0.87,0.86,1.79,0.83c0.48-0.04,0.85-0.11,1.13-0.22c0.28-0.11,0.67-0.39,1.18-0.83
			c1.8-1.54,3.15-3.41,4.07-5.61c0.4-1.14,0.86-2.22,1.38-3.25c0.29-0.7,0.49-1.29,0.58-1.79c0.09-0.5,0.17-1.51,0.25-3.05
			c0.07-1.1,0.14-1.96,0.19-2.58c0.06-0.62,0.1-1.01,0.14-1.16c0.11-0.26,0.4-0.38,0.88-0.36c0.48,0.02,0.84,0.16,1.1,0.41
			c0.15,0.18,0.25,0.55,0.3,1.1c0.05,0.55,0.03,1.87-0.08,3.96c-0.11,3.08-0.02,5.68,0.28,7.81c0.07,0.84,0.15,1.52,0.22,2.03
			c0.07,0.51,0.15,0.97,0.22,1.38c0.07,0.4,0.16,0.71,0.25,0.91c0.09,0.2,0.18,0.38,0.27,0.52c0.09,0.15,0.23,0.27,0.41,0.38
			c0.37,0.26,0.9,0.41,1.59,0.47c0.7,0.05,1.1-0.01,1.21-0.19c0.07-0.15,0.33-0.22,0.77-0.22c0.4,0,0.67,0.15,0.8,0.44
			c0.13,0.29,0.03,0.61-0.3,0.94c-0.51,0.55-1.69,0.75-3.52,0.6c-1.21-0.07-2.02-0.29-2.42-0.66c-0.44-0.4-0.74-0.84-0.91-1.32
			c-0.16-0.48-0.32-1.28-0.47-2.42c-0.33-2.79-0.64-4.18-0.94-4.18C127.05,29.2,126.68,29.97,126.05,31.51z"/>
		<path class="st0" d="M138.21,14.43c0.07,0.02,0.17,0.05,0.27,0.08c0.11,0.04,0.26,0.09,0.44,0.17c0.48,0.18,0.92,0.7,1.32,1.54
			c0.07,0.18,0.15,0.37,0.22,0.55c0.07,0.18,0.14,0.37,0.19,0.55s0.08,0.37,0.08,0.55l0.17,3.85c0.04,2.82,0.15,4.27,0.33,4.35
			s0.75-0.35,1.71-1.27c0.95-0.95,1.87-1.72,2.75-2.31c0.44-0.29,0.83-0.56,1.16-0.8c0.33-0.24,0.6-0.45,0.83-0.63
			c2.57-2.05,4.18-3.12,4.84-3.19c0.07,0,0.16,0,0.25,0s0.23,0.04,0.41,0.11c0.18,0.07,0.29,0.15,0.33,0.22
			c0.11,0.33,0.04,0.66-0.22,0.99c-0.07,0.11-0.18,0.22-0.33,0.33c-0.15,0.11-0.32,0.24-0.52,0.38s-0.43,0.29-0.69,0.44
			c-3.37,2.2-6.01,4.31-7.92,6.33c-0.84,0.92-1.54,1.85-2.09,2.81s-0.83,1.7-0.83,2.25c0,0.51-0.05,1.04-0.17,1.59l-0.17,0.55
			c-0.07,0.37-0.15,0.68-0.22,0.94c0,0.15-0.02,0.27-0.05,0.38c-0.04,0.11-0.06,0.22-0.06,0.33c-0.11,0.7-0.24,1.21-0.38,1.54
			c-0.07,0.18-0.16,0.33-0.25,0.44c-0.09,0.11-0.19,0.2-0.3,0.28c-0.18,0.15-0.46,0.22-0.83,0.22c-0.4,0-0.71-0.2-0.93-0.61
			c-0.33-0.66-0.17-1.8,0.5-3.41c0.59-1.5,0.88-5.39,0.88-11.66c0-0.62,0-1.16,0-1.59c0-0.44,0-0.77,0-0.99
			c-0.04-0.48-0.09-0.91-0.17-1.29c-0.07-0.38-0.24-0.91-0.5-1.57c-0.22-0.66-0.38-1.17-0.47-1.54c-0.09-0.37-0.12-0.59-0.08-0.66
			c0.07-0.11,0.13-0.18,0.17-0.22c0.04-0.04,0.09-0.05,0.17-0.05C138.08,14.4,138.14,14.41,138.21,14.43z"/>
		<path class="st0" d="M158.61,3.02c2.82,0.55,4.97,0.86,6.43,0.93c0.15,0.04,0.3,0.06,0.47,0.08s0.33,0.05,0.5,0.11
			s0.33,0.11,0.5,0.17s0.32,0.12,0.47,0.19c0.29,0.18,0.51,0.35,0.66,0.5c0.11,0.15,0.17,0.29,0.17,0.44s-0.03,0.27-0.08,0.36
			c-0.06,0.09-0.14,0.19-0.25,0.3c-0.26,0.15-0.55,0.16-0.88,0.05h-0.05c-0.26-0.04-0.48-0.07-0.66-0.11
			c-0.18-0.04-0.35-0.06-0.5-0.08s-0.26-0.05-0.33-0.08c-3.34-0.4-5.72-0.79-7.15-1.15c-0.59-0.11-1.08-0.37-1.48-0.77
			c-0.44-0.37-0.66-0.73-0.66-1.1c0-0.22,0.04-0.33,0.11-0.33C156.08,2.52,157,2.69,158.61,3.02z M161.25,17.76
			c-0.11,4.25-0.28,7.28-0.5,9.08c-0.11,1.32-0.18,3.25-0.22,5.78c-0.04,0.95-0.07,1.74-0.11,2.37c-0.04,0.62-0.07,1.08-0.11,1.37
			c-0.11,0.62-0.35,1.08-0.72,1.38c-0.55,0.44-1.06,0.37-1.54-0.22v-0.05c-0.15-0.11-0.24-0.22-0.27-0.33
			c-0.07-0.15-0.11-0.26-0.11-0.33c-0.04-0.22-0.02-0.62,0.06-1.21c0.18-0.99,0.27-2.29,0.27-3.91c0-1.5,0.09-3.39,0.28-5.67
			c0.11-1.72,0.26-4.4,0.44-8.03c0.04-0.81,0.08-1.51,0.14-2.12c0.05-0.6,0.1-1.12,0.14-1.54c0.04-0.42,0.09-0.76,0.17-1.02
			c0.07-0.33,0.18-0.67,0.33-1.02c0.15-0.35,0.35-0.69,0.6-1.02c0.22-0.29,0.42-0.5,0.61-0.61c0.11-0.07,0.21-0.08,0.3-0.03
			c0.09,0.05,0.17,0.17,0.25,0.36C161.36,11.25,161.36,13.5,161.25,17.76z"/>
		<path class="st0" d="M170.05,16.33c0.11-0.04,0.33-0.05,0.66-0.05c0.26,0,0.51,0.04,0.77,0.11c0.26,0.07,0.51,0.2,0.77,0.39
			c0.29,0.18,0.55,0.39,0.77,0.63c0.22,0.24,0.39,0.52,0.5,0.85c0.26,0.62,0.42,1.76,0.5,3.41c0.07,1.98,0.18,3.06,0.33,3.25
			c0.18,0.15,0.62-0.15,1.32-0.88c0.26-0.29,0.57-0.61,0.93-0.96c0.37-0.35,0.79-0.72,1.27-1.13c0.92-0.81,1.52-1.27,1.81-1.38
			c0.48-0.26,0.86-0.48,1.16-0.66c0.26-0.11,0.51-0.19,0.77-0.25c0.26-0.05,0.5-0.04,0.71,0.03c0.48,0.15,0.83,0.44,1.05,0.88
			c0.07,0.15,0.14,0.33,0.19,0.55c0.05,0.22,0.11,0.46,0.17,0.71c0.05,0.26,0.1,0.55,0.14,0.88c0.04,0.55,0.07,0.95,0.11,1.21
			c0.04,0.26,0.11,0.42,0.22,0.5c0.11,0.04,0.24-0.04,0.39-0.22c0.07-0.07,0.15-0.17,0.22-0.28c0.07-0.11,0.17-0.24,0.27-0.38
			c0.04-0.11,0.1-0.24,0.19-0.38c0.09-0.15,0.21-0.3,0.36-0.47c0.15-0.17,0.3-0.34,0.47-0.52c0.17-0.18,0.35-0.38,0.55-0.61
			c0.2-0.22,0.43-0.46,0.69-0.71c0.4-0.44,0.79-0.84,1.15-1.21c0.37-0.37,0.72-0.71,1.07-1.02c0.35-0.31,0.67-0.6,0.96-0.85
			c0.84-0.7,1.45-1.02,1.82-0.96c0.37,0.05,0.84,0.54,1.43,1.46l0.93,1.43l0.11,5.11c0.07,3.52,0.05,5.5-0.05,5.94
			c-0.15,0.51-0.22,1.25-0.22,2.2c0,0.48,0.02,0.87,0.05,1.18c0.04,0.31,0.07,0.54,0.11,0.69v0.05c0.07,0.15,0.17,0.27,0.3,0.36
			c0.13,0.09,0.28,0.16,0.47,0.19c0.18,0.11,0.33,0.23,0.44,0.36c0.11,0.13,0.2,0.28,0.27,0.47c0.07,0.33,0.04,0.61-0.11,0.82
			c-0.04,0.07-0.07,0.14-0.11,0.19c-0.04,0.05-0.08,0.11-0.14,0.16s-0.12,0.1-0.19,0.14c-0.07,0.04-0.15,0.07-0.22,0.11
			c-0.33,0.15-0.75,0.26-1.27,0.33c-0.15,0-0.29,0-0.44,0c-0.15,0-0.27,0-0.36,0c-0.09,0-0.17-0.02-0.25-0.05
			c-0.07,0-0.16-0.05-0.25-0.14c-0.09-0.09-0.17-0.21-0.25-0.36c-0.29-0.44-0.37-1.59-0.22-3.46c0.11-1.87,0.15-4.75,0.11-8.63
			c0-1.06-0.01-1.94-0.03-2.64c-0.02-0.7-0.04-1.31-0.06-1.84c-0.02-0.53-0.05-0.92-0.08-1.18c-0.04-0.26-0.07-0.42-0.11-0.5
			c-0.04,0-0.08,0-0.14,0c-0.05,0-0.12,0.01-0.19,0.03c-0.07,0.02-0.16,0.05-0.25,0.11c-0.09,0.06-0.19,0.13-0.3,0.22
			s-0.23,0.18-0.36,0.27c-0.13,0.09-0.27,0.19-0.41,0.3c-0.29,0.26-0.56,0.47-0.8,0.63c-0.24,0.17-0.49,0.32-0.74,0.47
			c-0.07,0-0.17,0.06-0.28,0.19c-0.11,0.13-0.24,0.29-0.38,0.5c-0.15,0.2-0.35,0.49-0.61,0.85c-0.7,0.99-1.38,2.06-2.06,3.22
			c-0.68,1.16-1.05,1.9-1.13,2.23c0,0.11-0.03,0.28-0.08,0.5s-0.1,0.4-0.14,0.55c-0.04,0.07-0.06,0.17-0.08,0.28
			c-0.02,0.11-0.05,0.22-0.08,0.33c-0.04,0.11-0.06,0.21-0.08,0.3c-0.02,0.09-0.05,0.16-0.08,0.19c-0.22,0.88-0.37,1.94-0.44,3.19
			c-0.15,2.02-0.62,3.03-1.43,3.03c-0.55,0-0.86-0.28-0.94-0.83c-0.07-0.55-0.02-2.18,0.17-4.89c0-0.18,0.02-0.44,0.05-0.77
			c0.33-5.35,0.4-8.12,0.22-8.3h-0.06h-0.22h-0.05c-0.33,0-0.73,0.15-1.21,0.44c-0.48,0.29-1.03,0.75-1.65,1.38
			c-1.28,1.25-2.2,2.48-2.75,3.69c-0.11,0.15-0.21,0.32-0.3,0.52c-0.09,0.2-0.18,0.41-0.27,0.63c-0.09,0.22-0.17,0.45-0.25,0.69
			c-0.07,0.24-0.16,0.49-0.25,0.74c-0.09,0.26-0.17,0.53-0.25,0.83c-0.44,1.43-0.7,2.62-0.77,3.57c-0.15,1.69-0.68,2.53-1.59,2.53
			c-0.88,0-1.17-0.6-0.88-1.81c0.48-2.09,0.68-3.41,0.6-3.96c0-0.33,0.05-0.7,0.17-1.1c0.15-0.48,0.18-2.66,0.11-6.54l-0.22-5.88
			l-0.93-0.17c-0.18-0.04-0.34-0.08-0.47-0.14c-0.13-0.05-0.22-0.12-0.27-0.19c-0.06-0.07-0.1-0.17-0.14-0.28
			C169.96,16.53,169.98,16.4,170.05,16.33z"/>
	</g>
	<line class="st1" x1="175.39" y1="3.35" x2="175.39" y2="16.27"/>
	<line class="st1" x1="188.3" y1="3.35" x2="188.3" y2="16.27"/>
	<g>
		<path class="st1" d="M191.17,26.06c0,9.43-4.4,17.06-9.83,17.06"/>
		<path class="st1" d="M165.33,26.06c0,9.43,7.22,17.06,16.13,17.06"/>
	</g>
</g>
</svg>
